<svg id="Layer_1" enable-background="new 0 0 75 75" viewBox="0 0 75 75" xmlns="http://www.w3.org/2000/svg">
	<g id="_x31_">
		<g>
			<path
				d="m21.5504112 37.0089378-2.8216362 11.1723137v8.8241158l10.4415875 5.625225 9.7840786 3.1331559 10.4482269-5.0165253 6.1285019-4.8426933-.6761475-10.1020241-2.3988456-6.1967812-3.7546082-4.3499183-8.7759438.8292312.6142922 1.1627808-11.3695545-.7418251z"
				fill="#dd0426" />
		</g>
		<g>
			<path
				d="m19.4230995 25.5885868c-.0063477 0-.0126953 0-.019043 0-1.6025391-.0996094-3.5317383-.8369141-4.1420898-2.6103516-.246582-.7158203.0356445-1.5976563.65625-2.0498047.6464844-.4697266 1.7021484-.4794922 2.2416992.2539063.553299.7516918.2092571 1.7330589-.6025391 2.1318359-.3588829.171793-.6190186-.3643017-.2636719-.5390625.2592773-.1269531.4521484-.3564453.5146484-.6123047.1802883-.7305202-.7633572-1.3090744-1.5371094-.75-.4023438.2939453-.6010742.9082031-.4418945 1.3701172.5141602 1.4941406 2.2026367 2.1191406 3.6118164 2.2060547.1655273.0107422.2910156.1533203.2807617.3183594-.0097655.1591797-.1416014.28125-.298828.28125z"
				fill="#dd0426" />
		</g>
		<g>
			<path
				d="m12.3332558 27.4206181c-.3618164-.6660156-.2285156-1.5820313.309082-2.1298828.5600586-.5712891 1.5976563-.7568359 2.2524414-.1201172.6712742.6502609.4900246 1.6765175-.2416992 2.2021484-.3252268.2294331-.6708517-.2578239-.3496094-.4882813.2353516-.1689453.387207-.4267578.4067383-.6904297.053792-.7484035-.9694653-1.1667767-1.639183-.4833984-.3490982.3554688-.4433365.9941406-.2104263 1.4228516.7529297 1.3876953 2.5239258 1.7236328 3.9262695 1.5791016.1699219-.0234375.3120117.1025391.3295898.2675781.0170898.1650391-.1025391.3125-.2670898.3300781-1.7599173.1763935-3.6680537-.3282776-4.5161133-1.8896484z"
				fill="#dd0426" />
		</g>
		<g>
			<g>
				<path
					d="m13.6450071 52.3022041c.005722.6806984.6903868 1.1190681 1.3168774 1.5536652 3.1186152 2.1629601 7.2139997 1.8030548 8.8606749 2.0698204.2135944.3472061.0547962.0625992 4.6741028 2.4877014.632019.3318291 1.3453274.6522484 1.9072361 1.0899467-1.8233051 1.1295738-2.9885788 4.1714592-3.4486732 6.1686287-.2117577.919426.0690708 1.9003525.1034145 2.8442001-1.0755253-.301796-3.4019661-.1149826-8.1898155-1.6449814-5.5623388-1.7785568-9.4145365-5.2316551-7.9301214-10.8672447.4147757-1.5744781 1.2640399-2.8737678 2.7063044-3.7017364z"
					fill="#71b48d" />
			</g>
			<g>
				<g>
					<path
						d="m37.372776 68.3366699c-.3154602.3378601-.5670853.7104568-.925705 1.0106354-2.4767685.1690979-7.8558788-.4252625-9.3884315-.8311386-.1506863-.1796265-.227272-.3172607-.2840633-.5434113-.5074673-2.0207214.9875355-6.1046295 2.0657978-7.8838539.4032822-.6654739.7357502-.9821854 1.5198116-1.1791.3835468-.0176926.7845612-.0492668 1.1613789.0349197 1.8988075.4241638 4.6075249 2.7291565 6.1233711 3.9738922 0 0 1.6738014 4.020031-.2721596 5.4180565z" />
				</g>
				<g>
					<path
						d="m28.7224159 67.9987411-.2890625-1.5302734 1.5092773-.5458984-.6611328-1.2285156c-.1108398-.2236328-.0600586-.4970703.1235352-.6660156l1.5361328-1.4042969-.5444336-1.2333984c-.1414986-.340004.0754795-.7248993.4458008-.7744141l2.1757813-.2802734c.4070206-.0379715.4604454.5455132.0771484.5957031l-2.175293.2802734.5649414 1.2236328c.0917969.2177734.0361328.4716797-.1386719.6318359l-1.5361328 1.4042969.6479492 1.2373047c.1487827.2975693.0055923.6650848-.3125.7783203l-1.027832.3720703.1943359 1.0283203c.0307617.1630859-.0766602.3193359-.2392578.3505859-.1512756.0318528-.318325-.0698928-.3505859-.2392578z"
						fill="#fcfafc" />
				</g>
			</g>
		</g>
		<g>
			<g>
				<g>
					<path
						d="m37.2458992 68.3408127c.3033257.3546753.5409088.7417297.8892937 1.0601959 2.4867744.2762222 7.9285049-.0951691 9.4887466-.4398651.1593437-.1750107.2422943-.3107681.309063-.5367737.5966187-2.0194321-.7356873-6.2080193-1.7460251-8.0510216-.3778801-.6893311-.6992302-1.0233727-1.480381-1.2556458-.3854599-.0341949-.7879143-.0831566-1.1709137-.014164-1.9299469.347599-4.755127 2.5604591-6.3342285 3.7531815 0 .0000001-1.8557663 3.9891816.044445 5.4840928z" />
				</g>
				<g>
					<path
						d="m49.5504417 56.6657944c.514698-.1561394 1.2464485-.1046104 2.3785095-.3946686 5.5913544-1.4329109 7.6464081-4.4200134 8.0620117-4.7044258 1.9602776.8283691 3.0895844 1.6999664 3.8994217 3.7009392 2.0830116 5.1450119-2.8287239 8.528614-7.8020935 11.0165482-2.4367752 1.2189865-7.3639793 2.5647964-8.5322685 2.6826324.1581078-.1731186.2404137-.3074112.3066635-.5309601.5919838-1.9975662-.7299728-6.1408081-1.7324677-7.9638557-.3749428-.6818695-.6937981-1.0122948-1.4688873-1.2420502.4873276-.6054153 2.664238-1.685955 3.4726563-2.0053749.4271736-.1687165 1.0705719-.2753907 1.4164543-.5587845z"
						fill="#71b48d" />
				</g>
			</g>
			<g>
				<path
					d="m45.0607948 68.7555771c-.152832-.0644531-.2246094-.2402344-.1601563-.3925781l.7607422-1.8066406-1.2583007-.6123048c-.1899414-.0908203-.2836914-.3115234-.215332-.5136719l.6044922-1.8173828c-.9897461-.1621094-1.5878906-.5410156-1.7797852-1.1279297-.3925781-1.2011719 1.1401367-2.6972656 1.3164063-2.8642578.1191406-.1123047.309082-.109375.4238281.0117188.1137695.1201172.1088867.3095703-.0112305.4238281-.4018555.3808594-1.3930664 1.5273438-1.1586914 2.2421875.1582031.4824219.8999023.6738281 1.4941406.7490234.2666092.0343399.4364624.3006744.3520508.5507813l-.6230469 1.875 1.2695313.6171875c.2011719.0966797.2910156.3359375.2045898.5429688l-.8266602 1.9619141c-.0675086.1609268-.2524871.2220153-.3925781.1601562z"
					fill="#fcfafc" />
			</g>
		</g>
		<g>
			<path
				d="m19.4224014 30.7960987s-9.5271959 9.4172497-5.992095 20.7636509c0 0 2.0749178 5.3304939 12.7165022 3.6612587 0 0 6.8261948 2.9548836 6.483448-2.4270515 0 0 .6173973-6.5290833-1.9145641-6.27491 0 0-1.9671459 2.7305031-3.5550098 1.8161964l-4.3381443-2.439003 2.6503868-9.6080017s1.1472893-8.1456432-6.0505238-5.4921398z"
				fill="#dd0426" />
		</g>
		<g>
			<path
				d="m23.0822792 55.6989365c-.1171875-.1162109-.1176758-.3066406-.0004883-.4238281l.6772461-.6787109-.8466797-.5605469c-.2289486-.1505966-.280405-.4700203-.1020508-.6865234l.9399414-1.1269531-.7661133-.8603516c-.1928806-.2183914-.1433144-.5530357.1020508-.7070313l1.1806641-.7324219-.715332-1.0273438c-.2152405-.3107834.0056477-.734375.3828125-.734375h.902832l-.0585938-1.0009766c-.0097656-.1650391.1162109-.3076172.2817383-.3173828.1499023-.0087891.3071289.1162109.3168945.2822266.0204201.9891624.170229 1.2446632-.059082 1.4892578-.2219467.2355881-.479538.112999-1.1289063.1464844l.6499023.9335938c.1545372.2266541.0865383.5246544-.1367188.6640625l-1.1650391.7236328.7373047.828125c.152832.1708984.1572266.4326172.0092773.609375l-.9165039 1.0986328.8588867.5683594c.2494202.1669693.2790756.5144615.0717773.7197266l-.7915039.7929688c-.1164529.1164549-.3064191.1178969-.4243161-.0000001z"
				fill="#fff" />
		</g>
		<g>
			<path
				d="m31.0757294 46.0687866c.2448902.044014.7157078-.016468.8907452.1896248.0831738.0979309.1277599.3053589.190649.4218292.3715744.6881638.4708138.8218536.4333687 1.0088654-.0267944.133812-.1388588.2377205-.2642593.2913628-.249691.1068115-.6775265.0572281-1.498167.2172623-.3869915.0754662-.6263885.283062-.8108788.634613-.0490456.0934525-.093895.193222-.095459.2987709-.0034943.2356606.1963444.5049019.7337494.5332222.4681778.0246696 1.1650753-.1446381 1.8799877.4827156.190258.1669579.7419472.7174835.490551.9742393-.2060204.2104149-1.1006451.2588234-1.3938618.2584991-.0490112-.0000534-.1021595.0004997-.1409512.0304756s-.0465469.1015511-.0024185.1228905c.0238094.0115166 1.2388954.0169334 1.2654495.0171471.0763474.0006142.1541481.0014572.2266541.0253944.2435455.0804062.1345634.5638199.1368332.7710991-.5323486.0663986-2.1502686.1713715-2.1895981.3638039-.0359535.1759148.234272.1687469.3323784.1554985 1.5835228-.21381 1.5947685-.2353516 1.7230988-.1736374.1849785.0889511.1124268.4165535.1059723.5789528-.0273438.6878471.0606041.9502449-1.1718559.9824409-.3676205.0096016-.7634754.0336304-1.0498734.2644691-.076458.0616226-.0896854.1495743.0193348.1568985.6540947.0439453 1.5328388-.2838821 1.7064228-.2007065.0843506.0404205.1112404.154438.0824318.2434692-.0288124.0890312-.0986633.1578903-.1681328.2205429-.332695.3000565-.6062183.4978256-1.0600491.6035576-1.2280331.2862854-2.5732956.2668037-3.8128891.0498314-.3123837-.0545502-1.4254971-.3824654-1.6500168-.3430901-.2205868-.2450676.0894852-2.494957.1479836-2.9500198.3854961-2.9987335 1.1811447-3.0915718 1.4394951-3.788166.0815735-.2199516.1472092-.2993622.3688068-.1793823.1153126.0624352.2337265.1273918.3165455.2291031.0651493.0800095.1181374.1083374.1665249.0176697 1.0718975-2.0085029.9686622-2.8117065 2.6514282-2.5092468z"
				fill="#71b48d" />
		</g>
		<g>
			<path
				d="m53.582283 31.8469982s11.2461014 9.1822109 6.6230011 19.274004c0 0-4.3642273 7.8634338-16.2516937 4.631691 0 0-4.8789787-5.352726 1.4526253-7.6428757l5.4421234-1.9880409-2.758831-7.7713165s-.2524949-6.8439827 5.4927749-6.5034619z"
				fill="#dd0426" />
		</g>
		<g>
			<path
				d="m47.390976 49.1043625c.4375343.2610016.5972672.6834526.7370834 1.1929016.4481049 1.6354408.5106964 4.5640335.2056618 6.2469749-.460907-.0075378-1.0268822-.0762711-1.4505997-.2879486.1548576-.408062.2381783-.8665924.3255615-1.2990875.4052277-2.0060539.3698654-3.8186989.182293-5.8528404z"
				fill="#ea6980" />
		</g>
		<g>
			<path
				d="m46.0279922 48.4914856c.1229897-.0419693.0870781.4512329.0876236.5071907.0029106.2969742.103302.5763855-.1293335.8220024-.6908493.7293854-2.5930748-.0770073-3.5668106 1.2036743-.0630074.0828667-.2865372.3896065-.2565079.499321.0476646.1741524.5027885.1496353.6482811.1604462 1.1555138.0858612 1.6568413-.1056595 1.8968811-.058548.2392349.0469704.4575462.3108635.1525993.4519157-.1817665.0840034-2.2495575-.0403214-2.6119919-.0115242-.0993156.0078926-.1086044-.0463753-.1826401.0322189-.0747108.0795898-.0271568.2170906-.0370636.3111382-.0123978.117672-.0397377.223629-.0289421.3603745.0292854.3708611.1650887.4393425.4545441.443264.2652283.0035973 1.9144669-.0692177 2.3728867.175415.0949593.0506363.1296844.0968666.1562653.1901321-.0532684.1782722-.1851006.2985764-.435997.2903976-.3463478-.0109596-.5287285-.1404381-2.1218872-.1743202.116394.3562469.2231407.720295.3532562 1.0721359.4265633.0126076 1.6590958.0770531 1.9718399.3636513.0793114.0728493.0949593.1206818.1031036.2217484-.0351563.0744514-.0383682.0934677-.1238976.1268883-.3536835.1384964-1.1755142-.1162796-1.5630646-.1707153.1009064.1158028.246666.2074623.3336639.3293839.2079124.291378.1260223.6000671 1.100193.754158 1.4365311.2272301 1.5651741-.006031 1.8392258-.0260315.0788574-.0057564.157238.0350647.2313271.0292053.2166901-.0171394.3091354-.2338257.4703484-.3670235.315464-.6907387.8681068-3.0268822.6562958-4.8308678-.1141777-.9724693.0969048-1.9403725-.0276222-2.9169159-.1800842-1.4122734-.7800026-1.6234741-1.8628006-1.4904289-.6989517.0858803-1.3767967.2945061-2.0441818.5120277-.0722542.4289017.0218468.8736038-.0681801 1.2972946-.0287247.1559067.2413101-.0115929.246666.1457138.2866249.0399475.4852676-.2116776.762928-.2932968.3264542-.0959663.6750259-.0670776 1.0134583-.0319099.101757.0105744.2064094-.0304298.2095336.0718842z"
				fill="#71b48d" />
		</g>
		<g>
			<g>
				<g>
					<path
						d="m26.4735832 20.5396595s-5.782547 4.4944534-7.6606503 10.8432369l.8071442.4090805s-4.5711679 5.7993431 2.7897549 6.7720299c0 0 1.6029797 9.5635567 9.1656551 2.8520622 0 0 6.3503056 9.2033463 12.0380268 0 0 0 5.9468193 3.7865562 6.7045479-3.1206284 0 0 5.5438461-.7774124 3.6261139-5.8083305 0 0 .4421043-5.470211-3.4947128-7.2166004 0 0 .2343483-2.5013943-3.390728-2.9585285 0 0-4.3468475-6.3255444-20.5851517-1.7723217z"
						fill="#fff" />
				</g>
				<g>
					<path
						d="m27.0050068 22.3487034c8.4825344-3.5868912 14.0878162-2.8316174 20.1313572.6998806-.2515869.5335655-.3320656 1.1802082-.5155716 1.7429924-.2599144.7961254-.6482582 1.5256081-1.0388412 2.2642956.1340485-.2535229-1.0990105-.7840538-1.2753601-.8191338-1.041111-.2070923-2.3176918.4895782-2.3804283 1.6345482-.0056877.1076736.0008125.2161484.0069122.3236217-.8132973-.1559067-2.5063362-.9022179-3.2214737-1.3351135-.8406639 1.5610466-2.4862785 1.5586052-3.2958527.2661819-.1468163.0866394-1.8852921 1.0031204-3.4175816 1.5440578-1.2361031 2.702343-4.499754 1.3098412-4.024807-1.1021557-.0341415-.1184807-.161562-.2569752-.2282181-.3692532-.835184-1.4084643-.8085364-3.063957-.7401351-4.849922z"
						fill="#f8ac96" />
				</g>
				<g>
					<path
						d="m41.9261627 27.8712864c.0275574-.5028915.3298035-.9642029.7425728-1.2720699.8229713-.613821 2.3642578-.5374966 2.9131851.4567127.2702866.4895344.3993301.9746666.2444763 1.5296478-.1392021.4993286-.4893379.9005947-.9492111 1.1435623-1.2871017.680027-3.0288162-.3857765-2.9510231-1.8578529z"
						fill="#ea6980" />
				</g>
				<g>
					<path
						d="m40.5771751 21.231739c.1831055-.021616.3662071-.0240173.5495148-.0066051.697979.0624142 2.9792519.5401611 2.8875771 1.2292423-.026825.1997375-.1461143.3114128-.2983284.4318962-.1371765.0370255-.2621574.0492325-.4044113.0456314-.5787773-.0152111-2.5593758-.5419712-2.9117622-.9454479-.2318498-.2649078-.1060716-.5377025.17741-.7547169z"
						fill="#fefefe" />
				</g>
				<g>
					<path
						d="m32.9331894 21.3512211c.0831184.0082054.1640015.0186119.2341118.0672455.29179.2022324.3480949.5608234.1448975.8055515-.2179642.262249-1.1760979.4635067-1.8066406.6532478-.490984.1479015-.9785137.3750572-1.4885998.4375-.557209-.0664864-.6435814-.5947018-.3668156-.8984165.4966736-.5455742 2.529705-1.009491 3.2830467-1.0651283z"
						fill="#fefefe" />
				</g>
				<g>
					<g>
						<path
							d="m29.9392128 32.1745224c-2.4838867-.5165997-3.6894531-3.1562481-3.7397461-3.2685528-.0673828-.1503906 0-.328125.1513672-.3955078.1494141-.0683594.3276367-.0009766.3964844.1503906.0107422.0253906 1.1352539 2.4755859 3.3173828 2.9277344 1.4785156.3037109 3.1225586-.3574219 4.8891602-1.9716797l.1962891-.1796875.2026367.1748047c.0068359.0068359.7202148.6152344 1.5126953.53125.8143845-.0803432 1.2615013-.8702049 1.378418-.9873047 1.3006897 1.2540398 3.174881 2.3809853 4.9482422 2.1308594 1.2607422-.1748047 2.34375-1.0341797 3.21875-2.5527344.0820313-.1445313.2646484-.1943359.409668-.1103516.1435547.0820313.1928711.265625.1098633.4091797-.9726563 1.6894531-2.2036133 2.6474609-3.6586914 2.8486328-2.2402344.3066387-4.2885742-1.2597656-4.9711914-1.8486328-.8833351.9229507-2.0608253.9225597-3.1274414.1933594-1.4743997 1.2999497-3.3104174 2.3492489-5.2338869 1.9482403z" />
					</g>
				</g>
				<g>
					<g>
						<path
							d="m42.2551308 25.3073368c-.2680664-.4511719-.6489258-.9794922-1.1367188-.9765625-.4785156.0097656-.9101563.6152344-1.0361328.8476563-.0917969.1699219-.3037109.2333984-.4741211.1416016-.1699219-.0917969-.2333984-.3027344-.1425781-.4726563.0263672-.0488281.6508789-1.1943359 1.6352539-1.2167969.6347656.0117188 1.2255859.4287109 1.7558594 1.3173828.0986328.1660156.0444336.3808594-.121582.4804688-.1650162.0975761-.3807183.044836-.4799805-.1210938z" />
					</g>
				</g>
				<g>
					<g>
						<path
							d="m33.0461464 25.3073368c-.2685547-.4511719-.6523438-.9794922-1.1367188-.9765625-.4785156.0097656-.9101563.6152344-1.0361328.8476563-.0922852.1699219-.3027344.2333984-.4741211.1416016-.1699219-.0917969-.2333984-.3027344-.1425781-.4726563.0263672-.0488281.6508789-1.1943359 1.6352539-1.2167969.6386719.0117188 1.2255859.4287109 1.7558594 1.3173828.0986328.1660156.0444336.3808594-.121582.4804688-.1650162.0975761-.3807183.044836-.4799805-.1210938z" />
					</g>
				</g>
				<g>
					<g>
						<path
							d="m49.2585487 27.1169071-.9316406-.328125c-.1826172-.0644531-.2783203-.2636719-.2138672-.4462891.0644531-.1816406.2617188-.2792969.4462891-.2138672l.9316406.328125c.1826172.0644531.2783203.2636719.2138672.4462891-.0660362.186678-.2701912.2762814-.4462891.2138672z" />
					</g>
				</g>
				<g>
					<g>
						<path
							d="m49.4094276 30.2751102-.6391602-.1220703c-.1899414-.0361328-.3144531-.2197266-.2783203-.4091797.0366211-.1904297.2231445-.3115234.4091797-.2783203l.6391602.1220703c.1899414.0361328.3144531.2197266.2783203.4091797-.0352745.1838665-.2108078.3135872-.4091797.2783203z" />
					</g>
				</g>
				<g>
					<g>
						<path
							d="m48.946537 34.3688583-.8183594-.609375c-.1552734-.1152344-.1870117-.3339844-.0717773-.4892578.1157227-.1552734.3354492-.1865234.4897461-.0712891l.8183594.609375c.1552734.1152344.1870117.3339844.0717773.4892578-.1159363.156231-.3371925.1857072-.4897461.0712891z" />
					</g>
				</g>
				<g>
					<g>
						<path
							d="m22.1179237 28.1344852c-.3776398 0-.4860401-.517683-.1416016-.6699219l1.6845703-.7451172c.1757813-.078125.3833008.0019531.4619141.1787109.078125.1767578-.0019531.3837891-.1787109.4619141l-1.6845703.7451172c-.0458984.0205079-.0942383.0292969-.1416016.0292969z" />
					</g>
				</g>
				<g>
					<g>
						<path
							d="m27.8444862 35.5915146c-.1757813-.0800781-.2529297-.2880859-.1728516-.4638672l.5405273-1.1845703c.0795898-.1767578.2871094-.2529297.4638672-.1728516.1757813.0800781.2529297.2880859.1728516.4638672l-.5405273 1.1845703c-.0810489.1783104-.2909889.2512741-.4638672.1728516z" />
					</g>
				</g>
				<g>
					<g>
						<path
							d="m31.3210258 38.019249c-.1899185-.0371094-.313942-.2207031-.2773209-.4101563l.2294922-1.1875c.0366211-.1894531.2207031-.3095703.4101563-.2773438.1899414.0371094.3139648.2207031.2773438.4101563l-.2294922 1.1875c-.0347366.1800041-.2074452.3125649-.4101792.2773438z" />
					</g>
				</g>
				<g>
					<g>
						<path
							d="m35.949955 35.3053818-.1674805-1.7753906c-.0180664-.1923828.1235352-.3632813.315918-.3818359.1884766-.0087891.3637695.1230469.3813477.3154297l.1674805 1.7753906c.0180664.1923828-.1235352.3632813-.315918.3818359-.1927949.0167656-.3632126-.1237221-.3813477-.3154297z" />
					</g>
				</g>
				<g>
					<g>
						<path
							d="m38.6760292 34.4665146-.2983398-1.1044922c-.050293-.1865234.0600586-.3779297.246582-.4287109.1899414-.0498047.3793945.0605469.4291992.2470703l.2983398 1.1044922c.050293.1865234-.0600586.3779297-.246582.4287109-.1972961.0501099-.3810959-.0680809-.4291992-.2470703z" />
					</g>
				</g>
				<g>
					<g>
						<path
							d="m42.7238808 36.691124-.8652344-1.2148438c-.1123047-.1572266-.0751953-.3759766.0820313-.4882813.1577148-.1132813.3754883-.0751953.4882813.0820313l.8652344 1.2148438c.1123047.1572266.0751953.3759766-.0820313.4882813-.1536904.1097793-.3744737.0773009-.4882813-.0820313z" />
					</g>
				</g>
				<g>
					<g>
						<path
							d="m45.6491737 37.2116318-.465332-1.1640625c-.0717773-.1796875.015625-.3828125.1953125-.4550781.1782227-.0693359.3837891.015625.4550781.1953125l.465332 1.1640625c.0717773.1796875-.015625.3828125-.1953125.4550781-.1796607.0702133-.3832778-.0158119-.4550781-.1953125z" />
					</g>
				</g>
				<g>
					<g>
						<path
							d="m36.130619 41.4245224c-.1850586 0-.3393555-.1445313-.3491211-.3320313l-.043457-.8496094c-.0097656-.1923828.1386719-.3574219.331543-.3671875.1884766-.0068359.3574219.1376953.3676758.3320313l.043457.8496094c.0097656.1923828-.1386719.3574219-.331543.3671875-.0063476 0-.012207 0-.0185547 0z" />
					</g>
				</g>
			</g>
			<g>
				<g>
					<path
						d="m35.4132385 27.1518669c-.9198761-2.1898556 2.0723534-3.4642258 3.13937-1.6068993.2546349.4427032.3023949.8555851.1564789 1.3407173-.276989.5143528-.6639252.9574566-1.2550964 1.1267719-.7786484.2230988-1.5399361-.0610713-2.0407525-.8605899z"
						fill="#dd0426" />
				</g>
				<g>
					<path
						d="m28.8875809 26.3835411c2.2120991-1.2737103 4.4572678 1.8040752 2.314291 3.3629036-1.0310497.7496243-2.3084984.461504-2.9672432-.4559116-.6119652-.8699513-.3999329-2.300644.6529522-2.906992z"
						fill="#ea6980" />
				</g>
			</g>
		</g>
		<g>
			<g>
				<path
					d="m25.5672188 15.8864565c1.1435299-2.8979855 4.2810707-5.9855003 6.9113731-7.6678534.7710228-.4931374 1.6058578-.9076214 2.4467888-1.2716708 4.182682-1.8104854 8.2140198-1.8378377 11.6078262-.5331655 4.6529503 1.788229 5.7851791 5.2965755 7.9069557 9.2963696.3076782.6220264.697052 1.6050987 1.0356178 2.1386642-.8964081.4771271-1.2026634.8513832-1.6501579 1.7522011-1.4946976-1.861475-2.8788414-3.0789089-4.8960228-4.3757982l-.083725.1551065c.1843224.289999.3038139.6370373.4247322.9568558-6.8298797-2.6678276-16.7855147-2.8709669-23.7033881-.4507093z"
					fill="#dd0426" />
			</g>
			<g>
				<ellipse cx="57.065" cy="21.188" fill="#71b48d" rx="3.669" ry="3.671" />
			</g>
			<g>
				<g>
					<path
						d="m48.4719276 15.4049931c-.003418-.0214844-.3603516-2.2011719-1.6425781-2.4316406-.1630859-.0292969-.2714844-.1845703-.2421875-.3476563.0297852-.1630859.1826172-.2773438.3486328-.2421875 1.7026367.3056641 2.1123047 2.8222656 2.1289063 2.9296875.0253906.1630859-.0864258.3164063-.25.3417969-.149437.0280199-.3154412-.076891-.3427735-.25z" />
				</g>
			</g>
			<g>
				<path
					d="m48.8450699 23.5759296c-.4673653.3928757-1.0417099-.2090855-1.6345215-.5091381-5.9964256-3.5042019-11.3854218-4.1764717-19.4372559-.9841938-.90625.3593769-2.4588013 1.4855137-3.4541016 1.0820389-.8983154-.3643856-1.1315308-1.7643929-1.1744995-2.5951614-.1685028-3.2557983.8956928-4.0663528 2.4225464-4.6830196 6.9178467-2.4202375 16.8734741-2.2170954 23.7033691.4507484.8541794.4639893.9482155 1.7020073.8499756 2.6724854-.146141 1.4428596-.1055946 3.5830459-1.2755126 4.5662402z"
					fill="#71b48d" />
			</g>
			<g>
				<path
					d="m24.6076698 20.3786259-2.4702148-.3369141c-.1640625-.0224609-.2792969-.1728516-.2568359-.3378906.0224609-.1640625.1767578-.2783203.3378906-.2558594l2.4697266.3369141c.0742188.0058594.1489258-.0263672.1875-.0917969l.909668-1.5673828c.2133789-.3710938.6914063-.5 1.0649414-.2919922l1.230957.6894531c.0820313.0439453.1850586.0234375.2412109-.0507813l.9672852-1.2900391c.2299805-.3085938.6459961-.4052734.9887695-.2285156l1.2036133.6142578c.0703125.0351563.1552734.0244141.2133789-.0292969l1.4667969-1.3662109c.140625-.1318359.3579102-.1435547.5141602-.0292969l1.5708008 1.1630859c.0649414.0488281.1577148.0478516.2236328-.0009766l1.7055664-1.28125c.1772461-.1318359.4287109-.0947266.5610352.078125l.9047852 1.1660156c.059082.0761719.1650391.09375.2451172.0439453l1.5585709-.953125c.180687-.1113281.4170151-.0605469.5385971.1103516l.8095703 1.1503906c.0561523.0791016.1665039.1025391.2514648.0517578l1.0952148-.6660156c.3442383-.2109375.7905273-.1279297 1.0351563.1953125l1.1298828 1.4833984c.0463867.0615234.1235352.0839844.1987305.0673828l1.6357422-.4492188c.3388672-.0966797.6938477.0478516.8823242.3525391.28125.4541016.9560547 1.1787109 2.3178711.9404297.3991776-.0603409.488678.5226059.1035156.5917969-1.7773438.3056641-2.6401367-.7470703-2.9311523-1.2158203-.0478516-.078125-.128418-.109375-.2133789-.0908203l-1.6357422.4492188c-.3134766.0859375-.6391602-.0253906-.8354492-.2822266l-1.1293945-1.4833984c-.0585938-.0761719-.1635742-.0966797-.246582-.046875l-1.0957031.6669922c-.3515625.2158203-.8144531.1181641-1.0522461-.2177734l-.703125-.9990234-1.3999023.8564453c-.3422852.2109375-.7856445.1308594-1.0327148-.1884766l-.7875977-1.0136719-1.550293 1.1640625c-.2768555.2060547-.6630859.2070313-.940918.0029297l-1.4384766-1.0654297-1.347168 1.2548828c-.2421875.2236328-.6025391.2744141-.8945313.125l-1.2045898-.6152344c-.0834961-.0439453-.1806641-.0205078-.2348633.0537109l-.9672852 1.2900391c-.2363281.3154297-.6733398.40625-1.0146484.2148438l-1.230957-.6894531c-.0883789-.0478516-.2026367-.0175781-.2529297.0693359l-.9101563 1.5673828c-.1579725.2736036-.4645922.4288789-.7866213.3847658zm12.6542969-3.9111328c.0004883.0009766.0014648.0019531.0019531.0029297z"
					fill="#fff" />
			</g>
		</g>
		<g>
			<g>
				<path
					d="m35.938118 44.6756439c.3938446.0300217.8069954-.0630417 1.2051086-.0592384 1.4804306.0144691 5.8342934.2254753 6.6703491 1.4489937.0526352.0770531.0896187.164711.1264038.2495689.0310936.3608475.0056915.7262993-.0067062 1.0877457-.0684853.428894.0207291.8736-.0646248 1.297287-.0272331.1559105-.0247917.3000069-.0197144.4573135-.0290604.2517738-.0491791.501545-.0621834.7545204-.6159668.1036682-1.3674812.3662491-1.7351074.9012146-.066658.0968666-.1229515.2035408-.1802597.3060112-.1910286.6126175-.1392059 1.2046242-.0166626 1.8270531-.3828697.2081413-.8484535.3160133-1.2709503.4176826-2.0984688.5049477-4.4838867.5147552-6.5616264-.0778503-.3088989-.0880623-.6281586-.2221527-.9382744-.2893982.0097542-.6484451.1107559-1.4686089-.2080994-2.0550079-.2127724-.114296-.1246223-.3070831-1.0858154-.7144928-.0384083-.2994041-.058527-.602211-.0847435-.9030151l-.0812874-.4819336c.0089417-.2803917.0784435-.7919426-.0380039-1.0407104.0747871-.24897-.020525-.6782646-.0432854-.9432487.0075188-.1945305.0067062-.4188843-.0406437-.6078148.7250672-1.3890726 4.0181237-1.4838716 4.4361268-1.5746805z"
					fill="#ea6980" />
			</g>
			<g>
				<path
					d="m32.8757706 50.9415398c.432312.0309639 1.622303.5109291 2.5961571.6554489 1.5983391.2369614 3.3529587.2241516 4.9415436-.0840607.4926109-.095665.9592056-.3308258 1.4579124-.3938675-.1910286.6126175-.1392059 1.2046242-.0166626 1.8270531-.3828697.2081413-.8484535.3160133-1.2709503.4176826-2.0984688.5049477-4.4838867.5147552-6.5616264-.0778503-.3088989-.0880623-.6281586-.2221527-.9382744-.2893982.0097541-.6484451.1107559-1.4686089-.2080994-2.0550079z"
					fill="#fefefe" />
			</g>
			<g>
				<path
					d="m35.6251564 52.0531006c.0766144-.0016022.1556702-.0038033.2308617.0130081.3004189.0673599.521759.3553429.4251404.6284294-.0646248.1825256-.2060661.2665825-.3757591.343235-.1176643.0036049-.2414246.0110092-.3540115-.0298195-.2591972-.0939598-.4169159-.3659821-.3093033-.6270294.0735663-.1783218.2144011-.25037.3830718-.3278236z"
					fill="#ea6980" />
			</g>
			<g>
				<path
					d="m38.9267006 52.0146751c.0794601-.0018044.1617622-.0052032.240612.0037994.2674217.0301399.5621071.325779.4863129.6214256-.0514145.2011414-.1973305.293602-.3690529.3908691-.0827103.0020027-.1690788.0050049-.2513847-.0056038-.2956924-.0384598-.5445404-.3042145-.4661903-.5966072.0530395-.1963347.1922492-.3104132.359703-.4138831z"
					fill="#ea6980" />
			</g>
			<g>
				<path
					d="m35.938118 44.6756439c.3938446.0300217.8069954-.0630417 1.2051086-.0592384 1.4804306.0144691 5.8342934.2254753 6.6703491 1.4489937.0526352.0770531.0896187.164711.1264038.2495689-.004673.1501045-.0077248.24617-.1255913.3576469-.1349411.1274872-.3477135.2137451-.5129318.299202-2.5803413 1.7129822-9.7031708 1.2679901-11.178421-.1360931-.1857433-.22155-.3548241-.4537086-.6210442-.5853996.4713211-.9029541 2.1140175-1.2792435 3.1277847-1.4207726.421116-.0587578.9083711-.0670166 1.3083421-.1539078z"
					fill="#260f26" />
			</g>
			<g>
				<path
					d="m35.938118 44.6756439c.3938446.0300217.8069954-.0630417 1.2051086-.0592384 1.4804306.0144691 5.8342934.2254753 6.6703491 1.4489937.0526352.0770531.0896187.164711.1264038.2495689-.004673.1501045-.0077248.24617-.1255913.3576469-.1349411.1274872-.3477135.2137451-.5129318.299202-3.247345-1.5762482-8.6823006-1.32901-11.178421-.1360931-.1857433-.22155-.3548241-.4537086-.6210442-.5853996.7250672-1.3890725 4.0181237-1.4838715 4.4361268-1.5746804z"
					fill="#71b48d" />
			</g>
			<g>
				<path
					d="m41.8547211 52.9461136c.098156.6200218.2166328 1.2336426.4474945 1.8212471-.2284241.7457085-.4468842 1.5696754-.8065872 2.2655525-.1713181.3312263-.3678322.5545769-.7330208.6694565-1.1370277.3574448-5.7733307.4793282-6.714859-.0344238-.5976753-.3262215-.9378662-2.2449379-1.1376343-2.9119949.0103188-.3901367.133316-.4654579.1737556-1.7594032.3612633.0783348 3.3582649 1.3638344 7.4999008.3672485.4224968-.1016694.8880806-.2095414 1.2709504-.4176827z"
					fill="#ea6980" />
			</g>
		</g>
		<g>
			<g>
				<path
					d="m51.7355995 56.4528427c-.2169075 0-.2283707-.1444283-1.0634766-.9394531-.2158089-.2168274-.1765518-.5731659.0751953-.7382813l.9428711-.625-1.0009766-1.1992188c-.1508789-.1806641-.1469727-.4501953.0097656-.6259766l.8100586-.9111328-1.2739258-.7900391c-.2339821-.1435089-.2965393-.4569016-.1416016-.6796875l.7231445-1.0400391c-.7212601-.0343437-1.0088043.0917397-1.2387695-.1494141-.2367859-.2508659-.0820351-.4791412-.0581055-1.5849609.0097656-.1650391.1660156-.2832031.3168945-.2822266.1655273.0097656.2915039.1523438.2817383.3173828l-.0639648 1.0996094h.9936523c.3863411 0 .6141815.4355392.3930664.7529297l-.7817383 1.1240234 1.2880859.7988281c.2546806.1587906.3019295.5067368.1044922.7265625l-.8354492.9394531 1.0209961 1.2236328c.0874023.1054688.1259766.2421875.105957.3769531-.0513992.3460083-.3362122.3636246-1.1425781.9472656l.746582.7470703c.1888354.1888355.0529864.5117191-.2119138.5117191z"
					fill="#fff" />
			</g>
			<g>
				<g>
					<g>
						<path
							d="m50.8820839 46.2604599-.6665039-5.0908203c-.0214844-.1640625.0942383-.3154297.2583008-.3369141.1616211-.015625.3149414.09375.3364258.2587891l.6665039 5.0908203c.0214844.1640625-.0942383.3154297-.2583008.3369141-.1903153.0140991-.3172226-.1099778-.3364258-.2587891z" />
					</g>
				</g>
				<g>
					<g>
						<path
							d="m47.5256386 48.2497177-.1450196-.2773437c-.1845932-.3515625-.8261719-1.3076172-1.3422852-1.0712891l-1.8862305.5957031c-.1586914.0507813-.3266602-.0390625-.3759766-.1962891-.0498047-.1582031.0380859-.3261719.1962891-.3759766l1.8520508-.5830078c.7636719-.3525391 1.5161133.421875 1.9331055 1.0849609 3.9130859-2.1738281 7.046875-2.0527344 7.1835938-2.0429688.3791466.0179482.3862953.5972404-.0288086.5996094-3.86623.0000001-7.2864608 2.2357103-7.3867187 2.2666017z" />
					</g>
				</g>
				<g>
					<g>
						<path
							d="m48.2819862 56.8229599c-.1650391-.0175781-.2851563-.1640625-.2680664-.3291016.5917969-5.796875-.6459961-7.6054688-.6582031-7.6230469l-.0532227-.125-.2299805-1.3007813c-.0288086-.1630859.0800781-.3183594.2431641-.3476563.1625977-.0234375.3183594.0810547.3476563.2441406l.2192383 1.2392578c.2373047.3818359 1.2939453 2.4335938.7280273 7.9736328-.0166855.1647608-.1637802.2842562-.3286133.2685549z" />
					</g>
				</g>
				<g>
					<g>
						<path
							d="m45.0095253 52.2389755c-.6197777-.0357361-2.9426727-.1696777-2.7944336-.1611328-.4572754-.0277824-.4292259-.7216644.0410156-.6992188l2.7734375.1611328c.1928711.0117188.340332.1767578.3291016.3701172-.0112305.1855469-.1655274.3291016-.3491211.3291016z" />
					</g>
				</g>
				<g>
					<g>
						<path
							d="m44.9836464 53.9284286c-.6752357-.0248604-2.9860992-.1099472-2.8378906-.1044922-.1928711-.0068359-.34375-.1689453-.3364258-.3623047.0068359-.1933594.1733398-.3408203.3623047-.3369141l2.8251953.1044922c.1928711.0068359.34375.1689453.3364258.3623047-.006836.1894532-.1621094.3369141-.3496094.3369141z" />
					</g>
				</g>
				<g>
					<g>
						<path
							d="m44.7517128 55.4801865c-.2273712-.0091896-2.1766014-.0879936-2.0532227-.0830078-.4346275-.0175591-.4698906-.6809769.0283203-.6992188l2.0385742.0830078c.1933594.0078125.3432617.1708984.3354492.3642578-.0073241.1875-.1625976.334961-.349121.334961z" />
					</g>
				</g>
				<g>
					<g>
						<path
							d="m43.6247597 56.4352646c-1.6743164-1.0917969-1.9775391-3.4052734-1.9897461-3.5029297-.2075195-1.0537109-.0415039-1.8896484.4975586-2.4638672.9331055-.9951172 2.6206055-.7861328 2.6914063-.7783203.644043-.0361328.8291016-.2626953.8417969-.3476563.0698242-.3925781.0439453-.6484375-.0649414-.7216797-.2451172-.1669922-1.0200195.1582031-1.484375.4550781-.1401367.0888672-.3251953.046875-.4145508-.0908203-.0888672-.1396484-.0483398-.3251953.0913086-.4150391 1.4479294-.9259644 2.7749672-.8315163 2.4667969.8447266 0-.0009766.0004883-.0009766.0004883-.0009766.0043945 0-.0249023.8037109-1.4609375.8740234-.0678711-.0029297-1.5102539-.1787109-2.230957.5927734-.3979492.4257813-.5126953 1.0839844-.3413086 1.9570313.0058594.0419922.2871094 2.1601563 1.7280273 3.0976563.7788086.5058594 1.7724609.5820313 2.9526367.2285156l.0820313-.0244141.0834961.0224609c.0615234.0166016 6.3310547 1.6181641 12.8486328-5.0976563.1157227-.1191406.3056641-.1210938.4243164-.0058594s.121582.3046875.0063477.4238281c-6.440918 6.6357422-12.5283203 5.4775391-13.3525391 5.2792969-1.171837.3379901-2.3582994.3371775-3.3754884-.3261716z" />
					</g>
				</g>
			</g>
		</g>
		<g>
			<g>
				<path
					d="m28.7360878 48.9997177-.3754883-.2382813c-2.3168945-1.4667969-9.3803711-3.7431641-9.4516602-3.765625-.3071785-.0982056-.1732521-.5712204.1533203-.4765625.2792969.0898438 6.5888672 2.1240234 9.2202148 3.6132813.2742443-1.9045601 1.5107365-2.8503456 3.5219727-2.0498047.128418.0507813.190918.1962891.1401367.3251953-.0512695.1279297-.1972656.1894531-.324707.1396484-.8339844-.3339844-1.4995117-.3408203-1.9770508-.0205078-.8613281.5712891-.8984375 2.0136719-.8984375 2.0283203z" />
			</g>
			<g>
				<path
					d="m26.0544472 55.7370224c-.1259766 0-.234375-.0947266-.2480469-.2226563-.4057617-3.7363281 1.4135742-7.4541016 1.4912109-7.6103516.0620117-.1230469.2119141-.1728516.3349609-.1123047.1240234.0615234.1743164.2109375.1132813.3349609-.0185547.0371094-1.8320313 3.7460938-1.4423828 7.3330078.0151367.1376953-.0844727.2607422-.2216797.2763672-.0092773.0009767-.0180664.0009767-.0273437.0009767z" />
			</g>
			<g>
				<path
					d="m31.3376503 51.8268661c-.3147583 0-.3383961-.4676361-.0234375-.4990234l1.7797852-.1699219c.3341827-.0253487.3736076.4655876.0478516.4980469l-1.7797852.1699219c-.0083008.0009765-.0161133.0009765-.0244141.0009765z" />
			</g>
			<g>
				<path
					d="m30.8815956 52.606163 1.9594727-.2753906c.1333008-.015625.2626953.0751953.2822266.2128906.019043.1367188-.0761719.2636719-.2128906.2832031l-1.9594727.2753906c-.3458081.0288201-.3827153-.4513244-.069336-.4960937z" />
			</g>
			<g>
				<path
					d="m30.8776894 54.309288 1.5917969-.2470703c.3395844-.0400887.3944397.4441032.0771484.4941406l-1.5917969.2470703c-.3289127.048729-.4023876-.4428482-.0771484-.4941406z" />
			</g>
			<g>
				<path
					d="m23.1330605 46.0524521c-.1352539-.0283203-.222168-.1601563-.1948242-.2949219.1508789-.7353516.2617188-3.0810547.2631836-3.1044922.0063477-.1376953.1313477-.2373047.2612305-.2382813.1376953.0068359.2446289.1240234.237793.2617188-.0044174.0976563-.1137695 2.4082031-.2719727 3.1806641-.025631.1250839-.1435948.2213402-.2954102.1953125z" />
			</g>
			<g>
				<path
					d="m29.6203651 56.2116318c-.8452148 0-1.9008789-.1445313-3.2026367-.5439453-.9003906.1191406-10.3388672 1.2353516-12.9882813-3.2382813-.1680222-.2823677.2610893-.5415993.4306641-.2539063 1.9922295 3.3641472 8.7769947 3.4901466 12.5996094 2.9824219l.0532227.0166016c3.9897461 1.2382813 5.4853516-.0458984 5.675293-.2324219.9287109-2.1523438.7900391-3.3603516.5087891-3.9970703-.2583008-.5839844-.675293-.8007813-.8017578-.8544922-2.015625.0683594-2.2739258-.5019531-2.3027344-.6816406.0629883-1.3632813 1.3530273-1.6591797 2.0415039-1.6367188.1376953.0058594.2446289.1210938.2397461.2587891s-.1254883.2412109-.2583008.2412109c-.0644531.0009766-1.4125977-.0341797-1.5209961 1.0429688.0761719.0761719.434082.3271484 1.8325195.2734375l.0444336-.0019531c.6016159.2002869.9909477.73172 1.1743164 1.1376953.4814453 1.0644531.3076172 2.5644531-.5166016 4.4570313l-.0371094.0605469c-.0449218.0537108-.8413086.9697265-2.9716797.9697265z" />
			</g>
		</g>
	</g>
</svg>