<svg id="Layer_1" enable-background="new 0 0 508.854 508.854" height="512" viewBox="0 0 508.854 508.854" width="512"
	xmlns="http://www.w3.org/2000/svg">
	<g>
		<path
			d="m260.601 18.336c-14.64-1.619-28.78.915-41.25 6.659-4.348 2.003-6.381 7.044-4.555 11.469l14.878 36.035c2.142 5.188 8.472 7.055 13.152 3.958 14.723-9.744 32.811-14.585 51.731-12.492 12.091 1.338 23.232 5.364 32.893 11.418-8.239-29.999-34.047-53.419-66.849-57.047z"
			fill="#e69632" />
		<g>
			<g>
				<g id="XMLID_60_">
					<path
						d="m206.092 327.871v-112.946c.015-3.017 3.054-5.764 6.376-5.764h42.49c8.728 0 15.804-7.076 15.804-15.804 0-8.729-7.076-15.804-15.804-15.804h-42.49c-20.841 0-37.88 16.693-37.984 37.292v101.407z"
						fill="#961e0f" />
				</g>
				<g id="XMLID_59_">
					<path
						d="m254.822 209.162h42.49c3.322 0 6.36 2.747 6.375 5.684v113.026l31.609-11.618v-101.488c-.103-20.52-17.142-37.213-37.984-37.213h-42.49c-8.728 0-15.804 7.076-15.804 15.804 0 8.729 7.076 15.805 15.804 15.805z"
						fill="#961e0f" />
				</g>
			</g>
			<g>
				<g id="XMLID_58_">
					<path d="m174.483 316.253v10.348l31.609 1.27v-11.618z" fill="#ffda52" />
				</g>
				<g id="XMLID_57_">
					<path d="m303.688 316.253v11.618l31.608-1.27v-10.348z" fill="#ffda52" />
				</g>
			</g>
			<g>
				<g id="XMLID_56_">
					<path
						d="m174.483 326.601v4.353c0 8.728 7.076 15.804 15.804 15.804s15.804-7.076 15.804-15.804v-4.353z"
						fill="#80391b" />
				</g>
				<g id="XMLID_55_">
					<path
						d="m303.688 326.601v4.771c0 8.728 7.076 15.804 15.804 15.804s15.804-7.076 15.804-15.804v-4.771z"
						fill="#80391b" />
				</g>
			</g>
			<g>
				<path d="m222.632 122.646h64.44v146.534h-64.44z" fill="#e69632" />
			</g>
			<g>
				<g id="XMLID_54_">
					<path
						d="m277.949 499.565c-10.474 0-18.965-8.491-18.965-18.965v-151.59c0-10.474 8.491-18.965 18.965-18.965s18.965 8.491 18.965 18.965v151.59c0 10.474-8.491 18.965-18.965 18.965z"
						fill="#55696e" />
				</g>
				<g id="XMLID_53_">
					<path
						d="m231.83 499.565c-10.474 0-18.965-8.491-18.965-18.965v-151.59c0-10.474 8.491-18.965 18.965-18.965s18.965 8.491 18.965 18.965v151.59c0 10.474-8.491 18.965-18.965 18.965z"
						fill="#748488" />
				</g>
			</g>
			<path d="m213.033 193.357 5.346 265.612h71.921l6.446-265.612z" fill="#e64937" />
			<path d="m296.626 177.553h-23.591l-18.856 8.349-17.51-8.349h-23.004v31.609h82.961z" fill="#e64937" />
			<g>
				<path d="m213.033 432.92h83.713v10.691h-83.713z" fill="#ffda52" />
			</g>
			<ellipse cx="254.89" cy="134.358" fill="#80391b" rx="32.755" ry="32.755"
				transform="matrix(.16 -.987 .987 .16 81.438 364.434)" />
			<path
				d="m285.002 117.329c3.059 0 4.99-3.292 3.5-5.964-6.526-11.7-19.02-19.615-33.369-19.615s-26.843 7.915-33.369 19.615c-1.49 2.671.441 5.964 3.5 5.964z"
				fill="#ffda52" />
			<path d="m190.287 186.563v264.252c0 4.503 3.65 8.153 8.153 8.153h9.248l8.82-272.405z" fill="#961e0f" />
			<g>
				<path d="m207.688 175.585h10.691v283.384h-10.691z" fill="#be1423" />
			</g>
			<path d="m291.47 186.563 9.521 272.405h9.248c4.503 0 8.153-3.65 8.153-8.153v-264.252z" fill="#961e0f" />
			<g>
				<path d="m290.3 175.585h10.691v283.384h-10.691z" fill="#be1423" />
			</g>
			<g>
				<g>
					<path
						d="m287.644 127.991h-65.022c-2.952 0-5.346-2.393-5.346-5.346s2.393-5.346 5.346-5.346h65.022c2.952 0 5.346 2.393 5.346 5.346s-2.393 5.346-5.346 5.346z"
						fill="#e69632" />
				</g>
			</g>
			<ellipse cx="254.18" cy="117.036" fill="#e64937" rx="7.642" ry="9.223" />
			<path
				d="m222.632 127.962v103.955c0 4.877-3.954 8.831-8.831 8.831h-20.511c-5.785 0-10.008-5.47-8.543-11.066 0 0 37.885-101.72 37.885-101.72z"
				fill="#ffda52" />
			<path
				d="m287.072 231.917c0 4.877 3.954 8.831 8.831 8.831h20.511c5.785 0 10.008-5.47 8.543-11.066l-37.885-101.72z"
				fill="#ffda52" />
			<path d="m236.669 177.553c0 10.042 8.141 18.183 18.183 18.183s18.183-8.141 18.183-18.183z" fill="#80391b" />
		</g>
		<g>
			<ellipse cx="80.12" cy="88.73" fill="#827ddc" rx="28.206" ry="25.492" />
			<g>
				<g id="XMLID_50_">
					<g>
						<path
							d="m104.021 499.565c-10.53 0-19.067-8.537-19.067-19.067v-152.403c0-10.53 8.536-19.067 19.067-19.067s19.067 8.537 19.067 19.067v152.403c0 10.53-8.537 19.067-19.067 19.067z"
							fill="#55696e" />
					</g>
				</g>
				<g id="XMLID_49_">
					<g>
						<path
							d="m57.655 499.565c-10.53 0-19.067-8.537-19.067-19.067v-152.403c0-10.53 8.536-19.067 19.067-19.067s19.067 8.537 19.067 19.067v152.403c0 10.53-8.537 19.067-19.067 19.067z"
							fill="#748488" />
					</g>
				</g>
			</g>
			<path d="m38.757 191.715 14.316 267.036h55.064l14.782-267.036z" fill="#ffda52" />
			<path
				d="m31.778 313.384v-99.986c.015-3.032 3.07-5.794 6.41-5.794h5.919l-1.364-31.778h-4.555c-20.953 0-38.083 16.783-38.188 37.492v99.282z"
				fill="#e69632" />
			<path
				d="m129.897 213.318v100.066l31.778-.784v-99.362c-.103-20.629-17.234-37.412-38.187-37.412h-5.021l-1.289 31.778h6.31c3.34 0 6.395 2.761 6.409 5.714z"
				fill="#e69632" />
			<path d="m0 312.6v10.065l31.778 1.986v-12.051z" fill="#827ddc" />
			<path d="m129.897 312.6v12.051l31.779-1.986v-10.065z" fill="#827ddc" />
			<path d="m0 322.665v7.384c0 8.775 7.114 15.889 15.889 15.889s15.889-7.114 15.889-15.889v-7.384z"
				fill="#ba6746" />
			<path d="m129.897 322.665v7.804c0 8.776 7.114 15.889 15.889 15.889s15.889-7.114 15.889-15.889v-7.804z"
				fill="#ba6746" />
			<path d="m108.137 175.826h-55.064l-2.423 31.778h59.985z" fill="#ffda52" />
			<circle cx="80.838" cy="132.399" fill="#ba6746" r="32.93" />
			<g>
				<path
					d="m80.243 155.005c-17.339 0-28.566-7.329-28.566-7.329 0 28.532 13.072 67.158 29.198 67.158s29.198-38.626 29.198-67.158c0 0-11.604 7.329-29.83 7.329z"
					fill="#c8bec3" />
			</g>
			<path
				d="m96.196 89.905c-2.265 0-4.36-1.204-5.5-3.161l-8.513-14.612c-.606-1.04-2.109-1.04-2.715 0l-8.396 14.411c-1.213 2.082-3.44 3.362-5.85 3.362-2.409 0-4.637-1.28-5.85-3.362l-6.825-11.714c-.808-1.386-2.929-.813-2.929.791v38.602h61.948v-38.602c0-1.604-2.121-2.177-2.929-.791l-6.942 11.915c-1.139 1.958-3.234 3.161-5.499 3.161z"
				fill="#ffda52" />
			<g>
				<path
					d="m98.071 443.439c-1.065 0-2.129-.328-3.034-.985l-8.829-6.407-8.834 6.408c-1.809 1.312-4.257 1.312-6.066-.001l-8.828-6.406-8.826 6.406c-1.809 1.313-4.258 1.314-6.067 0l-11.863-8.608 6.067-8.361 8.829 6.407 8.826-6.406c1.809-1.313 4.258-1.313 6.067 0l8.829 6.407 8.834-6.408c1.809-1.312 4.257-1.312 6.066 0l8.83 6.408 8.837-6.409c1.809-1.311 4.255-1.312 6.064 0l11.87 8.608-6.064 8.362-8.838-6.409-8.839 6.409c-.904.657-1.968.985-3.031.985z"
					fill="#827ddc" />
			</g>
			<g>
				<path
					d="m111.567 121.182h-61.948c-2.852 0-5.165-2.312-5.165-5.165s2.313-5.165 5.165-5.165h61.948c2.852 0 5.165 2.312 5.165 5.165s-2.313 5.165-5.165 5.165z"
					fill="#e69632" />
			</g>
			<path d="m15.889 184.884v259.812c0 7.762 6.292 14.054 14.054 14.054h12.8l9.676-273.866z" fill="#e69632" />
			<path d="m108.151 184.884 10.316 273.866h12.159c7.762 0 14.054-6.292 14.054-14.054v-259.812z"
				fill="#e69632" />
			<g>
				<path d="m42.743 175.826h10.33v282.925h-10.33z" fill="#827ddc" />
			</g>
			<g>
				<path d="m108.137 175.826h10.33v282.925h-10.33z" fill="#827ddc" />
			</g>
		</g>
		<g>
			<g>
				<ellipse cx="428.56" cy="100.542" fill="#64afff" rx="29.277" ry="26.46" />
				<g>
					<g id="XMLID_46_">
						<path
							d="m452.095 499.565c-10.357 0-18.754-8.397-18.754-18.754v-149.907c0-10.358 8.397-18.754 18.754-18.754s18.754 8.397 18.754 18.754v149.906c0 10.358-8.397 18.755-18.754 18.755z"
							fill="#414b82" />
					</g>
					<g id="XMLID_45_">
						<path
							d="m406.488 499.565c-10.358 0-18.754-8.397-18.754-18.754v-149.907c0-10.358 8.397-18.754 18.754-18.754 10.358 0 18.754 8.397 18.754 18.754v149.906c.001 10.358-8.396 18.755-18.754 18.755z"
							fill="#5f6e9b" />
					</g>
				</g>
				<path d="m387.9 196.759 13.437 262.66h54.779l14.567-262.66z" fill="#64afff" />
				<path
					d="m381.036 311.563v-93.477c.015-2.983 3.02-5.698 6.305-5.698h4.708l.505-13.788-1.788-17.469h-3.425c-20.61 0-37.46 16.508-37.562 36.878v93.104z"
					fill="#2896ff" />
				<path d="m456.116 181.131h-54.779l-2.756 9.638v21.619h59.465v-26.198z" fill="#64afff" />
				<path
					d="m477.547 218.008v95.058l31.306-1.954-.049-93.183c-.102-20.291-16.952-36.799-37.562-36.799h-4.554l-2.545 10.128.435 21.129h6.664c3.285.001 6.29 2.717 6.305 5.621z"
					fill="#2896ff" />
				<g fill="#ffb69e">
					<path
						d="m349.778 321.273v11.553c0 8.631 6.997 15.629 15.629 15.629s15.629-6.997 15.629-15.629v-13.18z" />
					<path
						d="m477.547 319.646v13.594c0 8.632 6.997 15.629 15.629 15.629s15.629-6.997 15.629-15.629l.049-11.967z" />
					<ellipse cx="429.292" cy="138.415" rx="32.391" ry="32.391"
						transform="matrix(.383 -.924 .924 .383 137.13 482.06)" />
				</g>
				<path d="m365.407 190.041v257.879c0 6.351 5.148 11.5 11.5 11.5h13.859l10.573-269.379z" fill="#2896ff" />
				<g>
					<path d="m390.765 181.131h10.572v278.289h-10.572z" fill="#ffda52" />
				</g>
				<path d="m456.157 190.041 10.532 269.379h13.9c6.351 0 11.499-5.148 11.499-11.5v-257.879z"
					fill="#2896ff" />
				<g>
					<path d="m456.116 181.131h10.572v278.289h-10.572z" fill="#ffda52" />
				</g>
				<g>
					<path
						d="m429.05 152.051c-17.437 0-29.121 0-29.121 0 0 32.446 12.587 47.582 28.804 47.582s29.923-15.136 29.923-47.582c0 0-11.276 0-29.606 0z"
						fill="#e6dcdc" />
				</g>
				<g>
					<path
						d="m428.559 104.302c-2.806 0-5.08-2.275-5.08-5.08v-25.14c0-2.806 2.275-5.08 5.08-5.08s5.08 2.275 5.08 5.08v25.14c.001 2.806-2.274 5.08-5.08 5.08z"
						fill="#ffda52" />
				</g>
				<path
					d="m454.949 99.222h-51.798c-3.452 0-6.251 2.799-6.251 6.251v12.738c0 3.452 2.799 6.251 6.251 6.251h51.798c3.452 0 6.251-2.799 6.251-6.251v-12.738c0-3.452-2.798-6.251-6.251-6.251z"
					fill="#2896ff" />
				<g>
					<path d="m349.778 311.113h15.629v10.161h-15.629z" fill="#ffda52" />
				</g>
				<g>
					<path d="m492.088 311.113h16.766v10.161h-16.766z" fill="#ffda52" />
				</g>
			</g>
			<g fill="#f5f0f0">
				<path
					d="m420.779 137.042c-5.502-.422-10.195 3.434-11.095 8.57-.623 3.556-3.574 6.323-7.183 6.352-.028 0-.056 0-.084 0-2.028 0-3.914-.587-5.516-1.588.488 5.311 7.189 10.189 12.571 10.968 11.109 1.608 21.945-4.252 20.876-14.805-.509-5.013-4.546-9.111-9.569-9.497z" />
				<path
					d="m437.524 137.042c5.502-.422 10.195 3.434 11.095 8.57.623 3.556 3.574 6.323 7.183 6.352h.084c2.028 0 3.914-.587 5.516-1.588-.488 5.311-7.189 10.189-12.571 10.968-11.109 1.608-21.945-4.252-20.876-14.805.509-5.013 4.546-9.111 9.569-9.497z" />
			</g>
		</g>
		<g fill="#ffda52">
			<path
				d="m442.701 9.819 1.963 3.59 3.59 1.963c.707.387.707 1.402 0 1.788l-3.59 1.963-1.963 3.59c-.387.707-1.402.707-1.788 0l-1.963-3.59-3.59-1.963c-.707-.387-.707-1.402 0-1.788l3.59-1.963 1.963-3.59c.386-.707 1.401-.707 1.788 0z" />
			<path
				d="m129.766 20.852 4.928 9.011 9.011 4.928c1.158.633 1.158 2.297 0 2.93l-9.011 4.928-4.928 9.011c-.633 1.158-2.297 1.158-2.93 0l-4.928-9.011-9.011-4.928c-1.158-.633-1.158-2.297 0-2.93l9.011-4.928 4.928-9.011c.633-1.158 2.296-1.158 2.93 0z" />
			<path
				d="m481.631 35.492 4.361 7.973 7.973 4.361c.935.511.935 1.854 0 2.365l-7.973 4.361-4.361 7.973c-.511.935-1.854.935-2.365 0l-4.361-7.973-7.973-4.361c-.935-.511-.935-1.854 0-2.365l7.973-4.361 4.361-7.973c.511-.935 1.853-.935 2.365 0z" />
			<path
				d="m159.829 81.113 2.63 4.809 4.809 2.63c.914.5.914 1.812 0 2.312l-4.809 2.63-2.63 4.809c-.5.914-1.812.914-2.312 0l-2.63-4.809-4.809-2.63c-.914-.5-.914-1.812 0-2.312l4.809-2.63 2.63-4.809c.5-.913 1.813-.913 2.312 0z" />
			<path
				d="m33.279 19.916 2.63 4.809 4.809 2.63c.914.5.914 1.812 0 2.312l-4.809 2.63-2.63 4.809c-.5.914-1.812.914-2.312 0l-2.63-4.809-4.809-2.63c-.914-.5-.914-1.812 0-2.312l4.809-2.63 2.63-4.809c.5-.913 1.812-.913 2.312 0z" />
			<path
				d="m330.025 48.577 11.572 10.166c.889.781 2.105 1.074 3.252.785l14.935-3.77c2.888-.729 5.359 2.17 4.181 4.907l-6.092 14.147c-.468 1.087-.371 2.334.259 3.335l8.2 13.039c1.586 2.522-.408 5.767-3.375 5.492l-15.337-1.422c-1.178-.109-2.334.368-3.092 1.277l-9.867 11.828c-1.908 2.288-5.611 1.394-6.266-1.512l-3.387-15.026c-.26-1.154-1.071-2.106-2.17-2.546l-14.298-5.729c-2.765-1.108-3.06-4.906-.498-6.427l13.244-7.864c1.017-.604 1.672-1.67 1.751-2.85l1.03-15.368c.199-2.975 3.72-4.428 5.958-2.462z" />
		</g>
	</g>
</svg>